PathFileType	4	(X/Y/Z)	TVC_26_BWA6_walk_RCNL2025.trc
DataRate	CameraRate	NumFrames	NumMarkers	Units	OrigDataRate	OrigDataStartFrame	OrigNumFrames
100	100	4	27	mm	100	148	588
Frame#	Time	R_Shoulder			L_Shoulder			C7			J_Notch			R_Elbow			L_Elbow			R_Wrist			L_Wrist			R_Asis			L_Asis			R_Psis			L_Psis			Sacral			Thoracic			Sternum			R_Thigh_Lateral			R_Knee_Lateral			R_Shank_Lateral			R_Ankle_Lateral			R_Heel			R_Toe			L_Thigh_Lateral			L_Knee_Lateral			L_Shank_Lateral			L_Ankle_Lateral			L_Heel			L_Toe		
		X1	Y1	Z1	X2	Y2	Z2	X3	Y3	Z3	X4	Y4	Z4	X5	Y5	Z5	X6	Y6	Z6	X7	Y7	Z7	X8	Y8	Z8	X9	Y9	Z9	X10	Y10	Z10	X11	Y11	Z11	X12	Y12	Z12	X13	Y13	Z13	X14	Y14	Z14	X15	Y15	Z15	X16	Y16	Z16	X17	Y17	Z17	X18	Y18	Z18	X19	Y19	Z19	X20	Y20	Z20	X21	Y21	Z21	X22	Y22	Z22	X23	Y23	Z23	X24	Y24	Z24	X25	Y25	Z25	X26	Y26	Z26	X27	Y27	Z27
148	1.47000000	-79.274200	1335.076294	154.462646	-65.115898	1357.062256	-167.490326	-152.505859	1376.337769	-2.430309	4.794393	1297.867676	4.094537	-52.404331	990.151306	260.178833	-76.117058	1031.976318	-283.187836	42.089488	798.524231	289.552383	37.935369	841.153198	-236.854561	30.239805	950.559387	165.077820	75.279419	944.397461	-121.255447	-167.786148	924.301880	59.622307	-139.287430	918.190308	-83.760811	-153.536789	921.246094	-12.069252	-177.170624	1091.187012	-25.270523	84.437454	1069.269409	-4.099012	92.033432	570.534790	205.851730	132.357651	451.584045	142.777283	99.078674	268.561462	176.786026	73.806465	71.902565	102.109108	31.896564	57.014790	47.160172	210.130920	43.830849	97.375099	53.705448	568.618835	-156.529099	-8.758601	448.180206	-99.309227	-115.963020	255.762619	-140.286102	-229.661530	92.275749	-69.322098	-279.216431	92.897598	-16.950331	-106.077515	38.200947	-57.713917
149	1.48000000	-75.021576	1336.575562	155.637894	-60.656517	1358.116821	-166.288269	-148.197784	1377.506592	-1.352328	9.176398	1299.161133	5.371170	-46.120594	991.914917	261.809814	-70.793671	1033.078125	-281.956635	50.404453	801.303589	290.643661	43.644100	842.408844	-235.401581	34.440277	952.360901	167.413208	79.909920	945.758728	-119.686455	-163.032440	925.474915	61.398804	-134.683197	919.322876	-81.970650	-148.857819	922.398895	-10.285923	-172.558517	1092.216187	-23.963037	88.930901	1070.539307	-2.357841	92.811234	570.334412	206.873337	132.129959	451.314850	143.988297	98.111206	268.319733	177.382431	73.505096	71.699211	102.337334	31.760590	56.957230	47.322926	209.950897	43.799934	97.579453	60.561737	569.925537	-155.888336	-0.848698	448.927429	-99.321869	-110.964943	258.101654	-140.534149	-227.142883	96.333954	-69.541664	-276.627655	98.289383	-17.113777	-105.580055	38.196297	-57.792797
150	1.49000000	-70.808548	1338.233643	156.839874	-56.321217	1359.252319	-165.055786	-143.943192	1378.771729	-0.229740	13.489860	1300.550537	6.681230	-39.907379	993.836853	263.427979	-65.561485	1034.303955	-280.668152	58.708921	804.293457	291.663452	49.225115	843.789246	-233.927795	38.752911	954.225769	169.798996	84.383980	947.280640	-118.088539	-158.268936	926.761963	63.259064	-130.143463	920.560425	-80.174217	-144.206200	923.661194	-8.457577	-168.029755	1093.348022	-22.516747	93.328400	1071.915771	-0.488062	92.200027	569.901978	207.754349	131.820267	451.129883	145.136200	97.097496	268.104950	177.985031	73.191231	71.496910	102.591759	31.603399	56.896137	47.510071	209.749817	43.778332	97.806816	67.844986	571.333740	-155.423965	7.719775	449.686157	-99.535675	-105.324402	260.469391	-140.890869	-224.199371	100.726822	-69.872787	-273.562408	104.113098	-17.401312	-105.048592	38.141426	-57.869293
151	1.50000000	-66.629524	1340.010498	158.067459	-52.105167	1360.436890	-163.793732	-139.739075	1380.099365	0.937546	17.741068	1302.012207	8.017560	-33.764904	995.881287	265.040375	-60.439064	1035.620972	-279.335754	66.995274	807.455505	292.629578	54.707439	845.284332	-232.438148	43.180809	956.105042	172.170044	88.697144	948.908875	-116.450722	-153.515045	928.132935	65.184151	-125.657593	921.855225	-78.371765	-139.586319	924.994080	-6.593807	-163.573135	1094.547241	-20.938442	97.628311	1073.371582	1.485031	90.583397	569.391113	208.546417	131.524445	451.032928	146.199890	96.100136	267.905273	178.590500	72.891716	71.304535	102.869354	31.434446	56.832211	47.716785	209.542419	43.767929	98.048012	75.521065	572.832825	-155.160767	16.909719	450.443481	-99.962624	-99.036324	262.842529	-141.326431	-220.791275	105.433144	-70.265617	-269.942749	110.331985	-17.746393	-104.453331	38.058258	-57.927322
